<svg xmlns="http://www.w3.org/2000/svg" viewBox="0 0 1200 780" role="img" aria-label="Crafted to be Treasured">
  <defs>
    <linearGradient id="g" x1="0" x2="1" y1="0" y2="1"><stop offset="0" stop-color="#15120f"/><stop offset="0.52" stop-color="#6f563d"/><stop offset="1" stop-color="#ead6bb"/></linearGradient>
    <radialGradient id="r" cx="64%" cy="41%" r="48%"><stop offset="0" stop-color="#f6d291" stop-opacity=".92"/><stop offset=".42" stop-color="#c49558" stop-opacity=".42"/><stop offset="1" stop-color="#120f0d" stop-opacity="0"/></radialGradient>
    <filter id="soft"><feGaussianBlur stdDeviation="14"/></filter>
  </defs>
  <rect width="1200" height="780" fill="url(#g)"/>
  <circle cx="820" cy="290" r="260" fill="url(#r)"/>
  <path d="M690 210 C790 120 980 166 1012 310 C1048 472 872 570 718 488 C610 430 590 298 690 210Z" fill="#d3a06b" opacity=".42"/>
  <path d="M684 336 C740 255 862 235 930 305" fill="none" stroke="#f1d49b" stroke-width="15" stroke-linecap="round" opacity=".92"/>
  <path d="M742 388 C806 452 915 443 968 374" fill="none" stroke="#f1d49b" stroke-width="8" stroke-linecap="round" opacity=".7"/>
  <circle cx="934" cy="308" r="22" fill="#f8e3af" opacity=".95"/>
  <circle cx="734" cy="338" r="15" fill="#f8e3af" opacity=".82"/>
  <rect y="0" width="1200" height="780" fill="#0f1417" opacity=".33"/>
  <text x="78" y="522" font-family="Georgia, serif" font-size="76" fill="#fff9ef" letter-spacing="-1">Crafted to be Treasured</text>
  <text x="82" y="577" font-family="Arial, sans-serif" font-size="22" fill="#f3dfbd" letter-spacing="4">VELMORA FINE JEWELRY</text>
</svg>