<svg xmlns="http://www.w3.org/2000/svg" viewBox="0 0 900 1200" role="img" aria-label="Crystal">
  <defs><linearGradient id="g" x1="0" x2="1" y1="0" y2="1"><stop offset="0" stop-color="#211915"/><stop offset="1" stop-color="#b7956d"/></linearGradient></defs>
  <rect width="900" height="1200" fill="url(#g)"/>
  <ellipse cx="540" cy="440" rx="210" ry="275" fill="#c58f67" opacity=".34"/>
  <path d="M362 378 C424 266 612 252 684 374 C750 486 674 632 530 642 C394 650 300 486 362 378Z" fill="#cfa27d" opacity=".78"/>
  <path d="M586 410 C610 455 601 520 562 552" fill="none" stroke="#f6dca3" stroke-width="18" stroke-linecap="round"/>
  <circle cx="587" cy="399" r="26" fill="#f8e5ad"/>
  <circle cx="564" cy="559" r="18" fill="#f8e5ad"/>
  <path d="M0 935 C240 800 594 844 900 716 L900 1200 L0 1200Z" fill="#121719" opacity=".86"/>
  <text x="70" y="1042" font-family="Georgia, serif" font-size="58" fill="#fff7eb">Crystal</text>
  <text x="74" y="1098" font-family="Arial, sans-serif" font-size="18" fill="#d9b878" letter-spacing="4">QUIETLY BRIGHT</text>
</svg>