<svg xmlns="http://www.w3.org/2000/svg" width="720" height="1280" viewBox="0 0 720 1280">
  <defs>
    <linearGradient id="bg" x1="0" y1="0" x2="1" y2="1"><stop offset="0" stop-color="#18110d"/><stop offset="0.52" stop-color="#7b5a33"/><stop offset="1" stop-color="#dccab4"/></linearGradient>
    <linearGradient id="gold" x1="0" y1="0" x2="1" y2="1"><stop offset="0" stop-color="#fff3c5"/><stop offset="0.38" stop-color="#dfbf7a"/><stop offset="0.7" stop-color="#c9a15b"/><stop offset="1" stop-color="#7b5a33"/></linearGradient>
    <radialGradient id="glow" cx="50%" cy="42%" r="60%"><stop offset="0" stop-color="#fffaf3" stop-opacity=".58"/><stop offset=".45" stop-color="#c9a15b" stop-opacity=".18"/><stop offset="1" stop-color="#18110d" stop-opacity="0"/></radialGradient>
    <filter id="soft"><feGaussianBlur stdDeviation="20"/></filter>
  </defs>
  <rect width="100%" height="100%" fill="url(#bg)"/>
  <rect width="100%" height="100%" fill="#18110d" opacity=".28"/>
  <circle cx="360.0" cy="537.6" r="302.4" fill="url(#glow)"/>
  <ellipse cx="518.4" cy="230.4" rx="158.4" ry="115.2" fill="#fffaf3" opacity=".13" filter="url(#soft)"/>
  <g transform="translate(-90.0 90.0) scale(0.8)">
    <path d="M180 900 C320 820 600 820 730 900" fill="none" stroke="#fffaf3" stroke-width="10" opacity=".18"/>
    <circle cx="450" cy="330" r="64" fill="url(#gold)"/><path d="M450 410 C330 545 358 740 450 870 C542 740 570 545 450 410Z" fill="none" stroke="url(#gold)" stroke-width="30"/><path d="M390 548 H510 M380 628 H520 M398 708 H502" stroke="#fff6df" stroke-width="8" opacity=".58"/>
  </g>
  <text x="57.6" y="1164.8" fill="#fffaf3" opacity=".82" font-family="Georgia, serif" font-size="32" letter-spacing="4">DINNER SHIMMER</text>
</svg>