<svg xmlns="http://www.w3.org/2000/svg" width="720" height="1280" viewBox="0 0 720 1280">
  <defs>
    <linearGradient id="bg" x1="0" y1="0" x2="1" y2="1"><stop offset="0" stop-color="#18110d"/><stop offset="0.52" stop-color="#7b5a33"/><stop offset="1" stop-color="#dccab4"/></linearGradient>
    <linearGradient id="gold" x1="0" y1="0" x2="1" y2="1"><stop offset="0" stop-color="#fff3c5"/><stop offset="0.38" stop-color="#dfbf7a"/><stop offset="0.7" stop-color="#c9a15b"/><stop offset="1" stop-color="#7b5a33"/></linearGradient>
    <radialGradient id="glow" cx="50%" cy="42%" r="60%"><stop offset="0" stop-color="#fffaf3" stop-opacity=".58"/><stop offset=".45" stop-color="#c9a15b" stop-opacity=".18"/><stop offset="1" stop-color="#18110d" stop-opacity="0"/></radialGradient>
    <filter id="soft"><feGaussianBlur stdDeviation="20"/></filter>
  </defs>
  <rect width="100%" height="100%" fill="url(#bg)"/>
  <rect width="100%" height="100%" fill="#18110d" opacity=".28"/>
  <circle cx="360.0" cy="537.6" r="302.4" fill="url(#glow)"/>
  <ellipse cx="518.4" cy="230.4" rx="158.4" ry="115.2" fill="#fffaf3" opacity=".13" filter="url(#soft)"/>
  <g transform="translate(-90.0 90.0) scale(0.8)">
    <path d="M180 900 C320 820 600 820 730 900" fill="none" stroke="#fffaf3" stroke-width="10" opacity=".18"/>
    <rect x="250" y="360" width="400" height="320" rx="34" fill="#ead8cc"/><rect x="280" y="395" width="340" height="245" rx="24" fill="#241812" opacity=".86"/><path d="M450 360 V680 M250 460 H650" stroke="url(#gold)" stroke-width="12"/><circle cx="390" cy="540" r="54" fill="none" stroke="url(#gold)" stroke-width="18"/><path d="M500 492 V588" stroke="url(#gold)" stroke-width="12"/><circle cx="500" cy="610" r="30" fill="url(#gold)"/>
  </g>
  <text x="57.6" y="1164.8" fill="#fffaf3" opacity=".82" font-family="Georgia, serif" font-size="32" letter-spacing="4">READY TO GIFT</text>
</svg>