<svg xmlns="http://www.w3.org/2000/svg" width="900" height="1100" viewBox="0 0 900 1100">
  <defs>
    <linearGradient id="bg" x1="0" y1="0" x2="1" y2="1"><stop offset="0" stop-color="#18110d"/><stop offset="0.52" stop-color="#7b5a33"/><stop offset="1" stop-color="#dccab4"/></linearGradient>
    <linearGradient id="gold" x1="0" y1="0" x2="1" y2="1"><stop offset="0" stop-color="#fff3c5"/><stop offset="0.38" stop-color="#dfbf7a"/><stop offset="0.7" stop-color="#c9a15b"/><stop offset="1" stop-color="#7b5a33"/></linearGradient>
    <radialGradient id="glow" cx="50%" cy="42%" r="60%"><stop offset="0" stop-color="#fffaf3" stop-opacity=".58"/><stop offset=".45" stop-color="#c9a15b" stop-opacity=".18"/><stop offset="1" stop-color="#18110d" stop-opacity="0"/></radialGradient>
    <filter id="soft"><feGaussianBlur stdDeviation="20"/></filter>
  </defs>
  <rect width="100%" height="100%" fill="url(#bg)"/>
  <rect width="100%" height="100%" fill="#18110d" opacity=".28"/>
  <circle cx="450.0" cy="462.0" r="378.0" fill="url(#glow)"/>
  <ellipse cx="648.0" cy="198.0" rx="198.0" ry="99.0" fill="#fffaf3" opacity=".13" filter="url(#soft)"/>
  <g transform="translate(0.0 0.0) scale(1.0)">
    <path d="M180 900 C320 820 600 820 730 900" fill="none" stroke="#fffaf3" stroke-width="10" opacity=".18"/>
    <circle cx="380" cy="372" r="58" fill="url(#gold)"/><path d="M380 430 C300 530 320 660 380 752 C440 660 460 530 380 430Z" fill="none" stroke="url(#gold)" stroke-width="24"/><circle cx="535" cy="372" r="58" fill="url(#gold)"/><path d="M535 430 C455 530 475 660 535 752 C595 660 615 530 535 430Z" fill="none" stroke="url(#gold)" stroke-width="24"/>
  </g>
  <text x="72.0" y="1001.0" fill="#fffaf3" opacity=".82" font-family="Georgia, serif" font-size="40" letter-spacing="4">AMBER LACE STYLED</text>
</svg>