<svg width="14" height="14" viewBox="0 0 14 14" fill="none"
	xmlns="http://www.w3.org/2000/svg">
	<path d="M6.11011 3.05516L4.13392 4.13578L3.05505 6.11021L1.97444 4.13578L0 3.05516L1.97444 1.97542L3.05505 0.000106812L4.1348 1.97629L6.11011 3.05516ZM9.48725 10.4877L10.7966 10.1054L10.4134 11.4147L10.7966 12.724L9.48725 12.339L8.17794 12.7231L8.56288 11.4138L8.17794 10.1045L9.48725 10.4885V10.4877ZM12.6907 6.9246L14 6.54229L13.6177 7.85159L14 9.1609L12.6907 8.77509L11.3814 9.1609L11.7672 7.85159L11.3814 6.54229L12.6907 6.9246Z" fill="#C8C6FF"/>
	<path d="M12.8775 2.44312C12.912 2.52077 12.9401 2.61137 12.9617 2.71491C12.9832 2.81845 12.994 2.9263 12.994 3.03847C12.994 3.15063 12.9724 3.2628 12.9293 3.37497C12.8862 3.48713 12.8171 3.59498 12.7222 3.69852C12.6187 3.80206 12.5259 3.89266 12.444 3.97031C12.362 4.04796 12.2908 4.11699 12.2304 4.17739C12.1614 4.24641 12.0967 4.30681 12.0363 4.35858L9.61607 1.93837C9.71961 1.84346 9.84256 1.72914 9.98493 1.5954C10.1273 1.46166 10.2459 1.35597 10.3408 1.27831C10.4616 1.1834 10.5867 1.11653 10.7162 1.07771C10.8456 1.03888 10.9729 1.02162 11.098 1.02594C11.2231 1.03025 11.3439 1.04967 11.4603 1.08418C11.5768 1.11869 11.6782 1.15752 11.7645 1.20066C11.9457 1.29557 12.1463 1.46166 12.3663 1.69894C12.5863 1.93621 12.7567 2.18427 12.8775 2.44312ZM2.79548 8.75896C2.84725 8.70719 2.96805 8.58424 3.15787 8.39011C3.34769 8.19597 3.58496 7.95654 3.86969 7.67181L4.81448 6.72702L5.86281 5.67869L8.6454 2.8961L11.0656 5.32925L8.28302 8.11185L7.24763 9.16017C6.9025 9.49667 6.59189 9.80513 6.31579 10.0855C6.03968 10.366 5.81104 10.5968 5.62985 10.778C5.44865 10.9592 5.3408 11.0627 5.30629 11.0886C5.22001 11.1662 5.12078 11.2482 5.00861 11.3345C4.89645 11.4208 4.77997 11.4898 4.65917 11.5416C4.53838 11.602 4.3615 11.6753 4.12854 11.7616C3.89558 11.8479 3.65183 11.932 3.3973 12.0139C3.14277 12.0959 2.90118 12.1671 2.67253 12.2275C2.44388 12.2879 2.27348 12.3267 2.16131 12.344C1.92835 12.3699 1.77304 12.3353 1.69539 12.2404C1.61773 12.1455 1.59616 11.9859 1.63068 11.7616C1.64793 11.6408 1.68892 11.4661 1.75363 11.2374C1.81834 11.0088 1.88736 10.7715 1.9607 10.5256C2.03404 10.2797 2.10523 10.0532 2.17425 9.84611C2.24328 9.63904 2.29936 9.49667 2.3425 9.41902C2.39427 9.29822 2.45251 9.18821 2.51722 9.08899C2.58193 8.98976 2.67469 8.87976 2.79548 8.75896Z" fill="#C8C6FF"/>
</svg>
