<svg width="1200" height="1500" viewBox="0 0 1200 1500" fill="none" xmlns="http://www.w3.org/2000/svg">
  <defs>
    <linearGradient id="bg" x1="140" y1="120" x2="1040" y2="1380" gradientUnits="userSpaceOnUse">
      <stop stop-color="#2C2327" />
      <stop offset="0.52" stop-color="#1F171A" />
      <stop offset="1" stop-color="#171113" />
    </linearGradient>
    <radialGradient id="glowA" cx="0" cy="0" r="1" gradientUnits="userSpaceOnUse" gradientTransform="translate(930 280) rotate(132.458) scale(583.539 484.476)">
      <stop stop-color="#E7D4B2" stop-opacity="0.52" />
      <stop offset="1" stop-color="#E7D4B2" stop-opacity="0" />
    </radialGradient>
    <radialGradient id="glowB" cx="0" cy="0" r="1" gradientUnits="userSpaceOnUse" gradientTransform="translate(282 1184) rotate(-40.9736) scale(426.22 407.915)">
      <stop stop-color="#C7A267" stop-opacity="0.38" />
      <stop offset="1" stop-color="#C7A267" stop-opacity="0" />
    </radialGradient>
    <filter id="blur" x="0" y="0" width="1200" height="1500" filterUnits="userSpaceOnUse" color-interpolation-filters="sRGB">
      <feGaussianBlur stdDeviation="22" />
    </filter>
  </defs>

  <rect width="1200" height="1500" rx="54" fill="url(#bg)"/>
  <g filter="url(#blur)">
    <circle cx="930" cy="280" r="270" fill="url(#glowA)"/>
    <circle cx="282" cy="1184" r="220" fill="url(#glowB)"/>
  </g>

  <rect x="82" y="82" width="1036" height="1336" rx="38" stroke="#E7D4B2" stroke-opacity="0.18" stroke-width="2"/>
  <rect x="122" y="122" width="956" height="1256" rx="28" stroke="#E7D4B2" stroke-opacity="0.08" stroke-width="2"/>

  <circle cx="600" cy="670" r="214" stroke="#E7D4B2" stroke-opacity="0.22" stroke-width="3"/>
  <circle cx="600" cy="670" r="164" stroke="#C7A267" stroke-opacity="0.5" stroke-width="16"/>
  <path d="M600 506C653.019 506 696 548.981 696 602V738C696 791.019 653.019 834 600 834C546.981 834 504 791.019 504 738V602C504 548.981 546.981 506 600 506Z" stroke="#F6EFE6" stroke-opacity="0.12" stroke-width="2"/>
  <path d="M430 1050H770" stroke="#E7D4B2" stroke-opacity="0.22" stroke-width="2" stroke-linecap="round"/>
  <path d="M478 1098H722" stroke="#E7D4B2" stroke-opacity="0.14" stroke-width="2" stroke-linecap="round"/>
</svg>
